<svg width="23" height="23" viewBox="0 0 23 23" fill="none" xmlns="http://www.w3.org/2000/svg">
<g id="Group">
<path id="Vector" d="M11.0424 22.9901C17.1374 22.9901 22.0848 18.0427 22.0848 11.9476C22.0848 5.85269 17.1374 0.905273 11.0424 0.905273C4.94742 0.905273 0 5.85269 0 11.9476C0 18.0427 4.94742 22.9901 11.0424 22.9901ZM11.0424 21.1497C5.95422 21.1497 1.8404 17.0358 1.8404 11.9476C1.8404 6.85949 5.95422 2.74567 11.0424 2.74567C16.1306 2.74567 20.2444 6.85949 20.2444 11.9476C20.2444 17.0358 16.1306 21.1497 11.0424 21.1497Z" fill="#1ABCFE"/>
<path id="Vector_2" d="M11.0315 13.8966C11.5403 13.8966 11.8435 13.6043 11.8543 13.0414L12.0167 7.3253C12.0275 6.77318 11.5945 6.36182 11.0207 6.36182C10.4361 6.36182 10.0247 6.76236 10.0355 7.31448L10.1763 13.0414C10.1871 13.5935 10.4902 13.8966 11.0315 13.8966ZM11.0315 17.415C11.6486 17.415 12.1899 16.917 12.1899 16.2891C12.1899 15.6613 11.6594 15.1632 11.0315 15.1632C10.3928 15.1632 9.8623 15.6721 9.8623 16.2891C9.8623 16.9062 10.4036 17.415 11.0315 17.415Z" fill="#1ABCFE"/>
</g>
</svg>
