<svg width="45" height="46" viewBox="0 0 45 46" fill="none" xmlns="http://www.w3.org/2000/svg">
<path d="M0.209198 33.7188H3.93046V17.8775H0.209198V33.7188ZM2.06237 15.8C3.22807 15.8 4.1397 14.9033 4.1397 13.7825C4.1397 12.6467 3.22807 11.75 2.06237 11.75C0.911626 11.75 0 12.6467 0 13.7825C0 14.9034 0.911626 15.8 2.06237 15.8ZM16.3202 11.7947C10.0286 11.7947 6.08296 16.0839 6.08296 22.9437C6.08296 29.8034 10.0282 34.0777 16.3202 34.0777C22.5969 34.0777 26.5425 29.8034 26.5425 22.9437C26.5425 16.0839 22.5973 11.7947 16.3202 11.7947ZM16.3202 15.0826C20.161 15.0826 22.6118 18.1313 22.6118 22.9436C22.6118 27.7408 20.1609 30.7897 16.3202 30.7897C12.4645 30.7897 10.0286 27.7409 10.0286 22.9436C10.0286 18.1314 12.4646 15.0826 16.3202 15.0826ZM28.1123 27.6513C28.2767 31.6268 31.5346 34.0776 36.4963 34.0776C41.7121 34.0776 45 31.5071 45 27.4122C45 24.1991 43.1468 22.3908 38.7681 21.3895L36.2872 20.8216C33.642 20.1939 32.551 19.357 32.551 17.9223C32.551 16.129 34.195 14.9334 36.6309 14.9334C39.0968 14.9334 40.7854 16.1439 40.9649 18.1615H44.6413C44.5516 14.3655 41.4132 11.7948 36.6609 11.7948C31.9681 11.7948 28.6354 14.3803 28.6354 18.2062C28.6354 21.2848 30.5185 23.1978 34.4936 24.1095L37.2883 24.7671C40.0082 25.4097 41.1141 26.3064 41.1141 27.8607C41.1141 29.654 39.3058 30.9393 36.7056 30.9393C34.0753 30.9393 32.0878 29.6391 31.8486 27.6514H28.1125L28.1123 27.6513Z" fill="white"/>
</svg>
