<svg width="35" height="63" viewBox="0 0 35 63" fill="none" xmlns="http://www.w3.org/2000/svg">
<path d="M-1.44301e-05 31.3058C-1.44301e-05 32.2097 0.325045 33.006 1.01309 33.6952L29.2399 61.6485C29.837 62.2917 30.6305 62.6133 31.5373 62.6133C33.3888 62.6133 34.8171 61.2122 34.8171 59.3287C34.8171 58.4482 34.4242 57.6138 33.8726 56.9784L7.95019 31.3058L33.8726 5.63342C34.4242 4.99797 34.8171 4.20185 34.8171 3.28304C34.8171 1.3996 33.3888 -0.00152444 31.5373 -0.00152444C30.6305 -0.00152444 29.837 0.320115 29.2399 0.963252L1.01309 28.9165C0.325045 29.6058 -1.44301e-05 30.4021 -1.44301e-05 31.3058Z" fill="#FF6F00"/>
</svg>
