<svg width="35" height="63" viewBox="0 0 35 63" fill="none" xmlns="http://www.w3.org/2000/svg">
<path d="M34.8172 31.3075C34.8172 30.4036 34.4921 29.6073 33.804 28.9181L5.57725 0.964793C4.98018 0.321561 4.18661 0 3.27982 0C1.42839 0 0 1.40112 0 3.28461C0 4.16506 0.392944 4.99949 0.944579 5.63493L26.8669 31.3075L0.944579 56.9799C0.392944 57.6153 0 58.4114 0 59.3302C0 61.2137 1.42839 62.6148 3.27982 62.6148C4.18661 62.6148 4.98018 62.2932 5.57725 61.65L33.804 33.6967C34.4921 33.0075 34.8172 32.2112 34.8172 31.3075Z" fill="#FF6F00"/>
</svg>
